<svg width="141" height="38" viewBox="0 0 141 38" fill="none" xmlns="http://www.w3.org/2000/svg">
<path fill-rule="evenodd" clip-rule="evenodd" d="M0.165283 17.8095H5.23597V6.15764L11.8686 17.8095H14.6981L21.3308 6.15758V17.8095H26.5373V0.976502H19.3161L13.476 11.4519L7.65809 0.976502H0.165283V17.8095ZM40.2989 0.68235C29.6371 0.68235 28.4373 5.9992 28.4373 9.00836V9.68722C28.4373 12.6512 29.6371 18.1037 40.2989 18.1037H41.2722C51.8892 18.1037 53.1118 12.6511 53.1118 9.68722V9.00854C53.1118 5.99938 51.8667 0.682531 41.2722 0.682531H40.2989V0.68235ZM47.5883 9.48326C47.5883 11.4289 46.4336 14.0082 40.7743 14.0082C35.07 14.0082 33.9607 11.3611 33.9607 9.43804V9.16656C33.9607 7.24339 34.9796 4.75465 40.7743 4.75465C46.4791 4.75465 47.5883 7.24339 47.5883 9.16656V9.48332V9.48326ZM55.0117 0.976198V17.8095H60.2186V6.65539L71.65 17.8095H76.8563V0.976502H71.65V11.5651L60.8973 0.976502H55.0117V0.976198ZM106.825 17.8095H112.1V11.2936L120.86 0.976623H114.907L109.587 7.17581L104.358 0.976502H97.8161L106.825 11.2936V17.8095Z" fill="black"/>
<path fill-rule="evenodd" clip-rule="evenodd" d="M55.002 20.1902V37.0232H60.2537V30.3488H72.1157V26.5026H60.2537V24.0138H72.4098V20.1902H55.002ZM110.317 37.3174C118.784 37.3174 120.187 34.4666 120.187 31.6837V31.367C120.187 28.0184 117.629 26.4799 111.291 26.3668L108.461 26.3215C105.021 26.2537 104.568 25.5976 104.568 24.8736C104.568 24.1496 104.862 23.4256 108.936 23.4256H109.298C113.713 23.4256 114.052 24.8057 114.166 25.4392H119.644V25.2129C119.644 22.6789 117.833 19.8961 109.865 19.8961H108.303C100.629 19.8961 99.1344 22.5206 99.1344 25.032V25.2356C99.1344 27.8601 101.059 29.9868 107.352 30.1678L110.249 30.2357C114.143 30.3488 114.664 30.9597 114.664 31.9329C114.664 32.8379 114.166 33.7203 109.729 33.7203H109.412C105.065 33.7203 104.477 32.0686 104.409 31.0505H98.9082V31.2994C98.9082 33.5167 99.927 37.3177 108.756 37.3177H110.317V37.3174ZM128.063 37.0232H133.383V24.1722H140.649V20.1899H120.82V24.1722H128.063V37.0232Z" fill="black"/>
<path d="M76.9121 20.1915H71.8787V24.0101H76.9121V20.1915Z" fill="black"/>
<path d="M76.9121 26.4952H71.5754V30.3744H76.9121V26.4952Z" fill="black"/>
<path d="M97.1674 0.977409H79.3987V4.79599H97.1674V0.977409Z" fill="#FCC344"/>
<path d="M97.1674 7.40231H79.3987V11.2209H97.1674V7.40231Z" fill="#FCC344"/>
<path d="M97.1674 13.8272H79.3987V17.6458H97.1674V13.8272Z" fill="#FCC344"/>
<path d="M97.1674 20.3127H79.3987V24.1313H97.1674V20.3127Z" fill="#FCC344"/>
<path d="M97.1674 26.7376H79.3987V30.5562H97.1674V26.7376Z" fill="#FCC344"/>
<path d="M97.1674 33.1626H79.3987V36.9811H97.1674V33.1626Z" fill="#FCC344"/>
</svg>
